# xmcd
#
# Track frame offsets: 
#        150
#        13302
#        26005
#        38337
#        49983
#        62460
#        73799
#        87335
#        101899
#        115911
#        127854
#        140409
#        152139
#        166267
#        177373
#        192399
#        206465
#        220565
#        234755
#        247553
#
# Disc length: 3452 seconds
#
# Revision: 4
# Processed by: cddbd v1.5.2PL0 Copyright (c) Steve Scherf et al.
# Submitted via: ExactAudioCopyFreeDBPlugin 1.0
#
DISCID=070d7a14
DTITLE=Various Artist - Diggin' Deeper: 200 Legendary Blues Treasures
DTITLE=[disc 8]
DYEAR=2004
DGENRE=Blues
TTITLE0=Mississippi John Hurt - Ain't No Telling - Mississippi John Hu
TTITLE0=rt
TTITLE1=Sleepy John Estes - New Someday Baby - Sleepy John Estes
TTITLE2=Memphis Minnie - Nothing in Rambling - Memphis Minnie
TTITLE3=Robert Johnson - Dead Shrimp Blues - Robert Johnson
TTITLE4=John Lee Williamson - Shake the Boogie - John Lee Williamson
TTITLE5=Blind Boy Fuller and Sonny Terry - Mean and No Good Woman - Blin
TTITLE5=d Boy Fuller and Sonny Terry
TTITLE6=Leadbelly - Death Letter Blues - Leadbelly
TTITLE7=Bessie Smith - Jail House Blues - Bessie Smith
TTITLE8=Jimmy Yancey - Lucille's Lament - Jimmy Yancey
TTITLE9=Lightnin' Hopkins - West Coast Blues - Lightnin' Hopkins
TTITLE10=Big Bill Broonzy - I Can't Be Satisfied - Big Bill Broonzy
TTITLE11=Brownie McGhee - Prison Woman Blues - Brownie McGhee
TTITLE12=John Lee Hooker - Boogie Chillen - John Lee Hooker
TTITLE13=Joe Turner - Blues in the Night - Joe Turner
TTITLE14=Arthur Crudup - Black Pony Blues - Arthur Crudup
TTITLE15=Ma Rainey - Farewell Daddy Blues - Ma Rainey
TTITLE16=Blind Willie McTell - Mama, Let Me Scoop for You - Blind Will
TTITLE16=ie McTell
TTITLE17=Kokomo Arnold - Laugh and Grin Blues - Kokomo Arnold
TTITLE18=Bukka White - Sleepy Man Blues - Bukka White
TTITLE19=Muddy Waters - Gypsy Woman - Muddy Waters
EXTD=10CD: Documents/Membran 222024-321 (2004), EAN 4011222220240, ISB
EXTD=N 978-3-87562-765-8.
EXTT0=(John Hurt)
EXTT1=(John Estes)
EXTT2=(E. Lawler)
EXTT3=(Robert Johnson)
EXTT4=(John Lee Williamson)
EXTT5=(Fuller)
EXTT6=(Huddie Ledbetter)
EXTT7=(Bessie Smith/C. Williams)
EXTT8=(Jimmy Yancey)
EXTT9=(Wilson Smith)
EXTT10=(Bill Broonzy)
EXTT11=(Walter McGhee)
EXTT12=(John Lee Hooker/Bernard Besman)
EXTT13=(Harold Arlen/Johnny Mercer)
EXTT14=(Arthur Crudup/J. McCoy)
EXTT15=(trad./Ma Rainey)
EXTT16=(Willie McTell)
EXTT17=(James Arnold)
EXTT18=(Bukka White)
EXTT19=(McKinley Morganfield)
PLAYORDER=
